<svg width="1600" height="1000" viewBox="0 0 1600 1000" fill="none" xmlns="http://www.w3.org/2000/svg">
  <rect width="1600" height="1000" fill="#111827"/>
  <rect width="1600" height="1000" fill="url(#paint0_linear_164_2)"/>
  <g opacity="0.9" filter="url(#filter0_f_164_2)">
    <ellipse cx="349" cy="198" rx="302" ry="204" fill="#F97316"/>
  </g>
  <g opacity="0.7" filter="url(#filter1_f_164_2)">
    <ellipse cx="1237" cy="825" rx="285" ry="170" fill="#FB923C"/>
  </g>
  <path d="M266 650C266 612.445 296.445 582 334 582H1104C1150.39 582 1188 619.608 1188 666V689H266V650Z" fill="#E2E8F0" fill-opacity="0.16"/>
  <path d="M380 529C380 444.501 448.501 376 533 376H863.073C905.771 376 946.385 394.189 974.793 426.02L1101.72 568.221H380V529Z" fill="white" fill-opacity="0.95"/>
  <path d="M504 405C504 384.013 521.013 367 542 367H826.104C860.44 367 893.225 381.553 916.037 407.053L992.988 493.053H504V405Z" fill="#CBD5E1"/>
  <rect x="541" y="399" width="214" height="90" rx="22" fill="#F8FAFC"/>
  <rect x="777" y="399" width="152" height="90" rx="22" fill="#E2E8F0"/>
  <path d="M1062 571H1237C1274.56 571 1305 601.445 1305 639V689H1062V571Z" fill="#94A3B8" fill-opacity="0.45"/>
  <rect x="1115" y="609" width="109" height="24" rx="12" fill="#F97316"/>
  <circle cx="520" cy="686" r="118" fill="#0F172A"/>
  <circle cx="520" cy="686" r="74" fill="#1E293B"/>
  <circle cx="520" cy="686" r="28" fill="#94A3B8"/>
  <circle cx="1020" cy="686" r="118" fill="#0F172A"/>
  <circle cx="1020" cy="686" r="74" fill="#1E293B"/>
  <circle cx="1020" cy="686" r="28" fill="#94A3B8"/>
  <path d="M1188 690H1323C1348.41 690 1369 710.595 1369 736V738H1188V690Z" fill="#F97316"/>
  <rect x="238" y="732" width="1124" height="12" rx="6" fill="white" fill-opacity="0.18"/>
  <path d="M298 215H547" stroke="white" stroke-opacity="0.32" stroke-width="18" stroke-linecap="round"/>
  <path d="M298 263H479" stroke="white" stroke-opacity="0.18" stroke-width="18" stroke-linecap="round"/>
  <defs>
    <filter id="filter0_f_164_2" x="-193.7" y="-245.7" width="1085.4" height="887.4" filterUnits="userSpaceOnUse" color-interpolation-filters="sRGB">
      <feFlood flood-opacity="0" result="BackgroundImageFix"/>
      <feBlend mode="normal" in="SourceGraphic" in2="BackgroundImageFix" result="shape"/>
      <feGaussianBlur stdDeviation="120.35" result="effect1_foregroundBlur_164_2"/>
    </filter>
    <filter id="filter1_f_164_2" x="711.3" y="414.3" width="1051.4" height="821.4" filterUnits="userSpaceOnUse" color-interpolation-filters="sRGB">
      <feFlood flood-opacity="0" result="BackgroundImageFix"/>
      <feBlend mode="normal" in="SourceGraphic" in2="BackgroundImageFix" result="shape"/>
      <feGaussianBlur stdDeviation="120.35" result="effect1_foregroundBlur_164_2"/>
    </filter>
    <linearGradient id="paint0_linear_164_2" x1="195.5" y1="94" x2="1314.5" y2="903" gradientUnits="userSpaceOnUse">
      <stop stop-color="#172033"/>
      <stop offset="0.517635" stop-color="#1E293B"/>
      <stop offset="1" stop-color="#273246"/>
    </linearGradient>
  </defs>
</svg>
